<?xml version="1.0" encoding="UTF-8"?>
<svg width="54px" height="42px" viewBox="0 0 54 42" version="1.1" xmlns="http://www.w3.org/2000/svg" xmlns:xlink="http://www.w3.org/1999/xlink">
    <!-- Generator: Sketch 48.2 (47327) - http://www.bohemiancoding.com/sketch -->
    <title>Logo_PUMA-Cat</title>
    <desc>Created with Sketch.</desc>
    <defs></defs>
    <g id="0X-Modul-Lib_Desktop" stroke="none" stroke-width="1" fill="none" fill-rule="evenodd" transform="translate(-48.000000, -456.000000)">
        <g id="M-01-Navigation_Desktop" transform="translate(0.000000, 432.000000)" fill="#000000">
            <path d="M101.024326,25.1430187 C100.510815,24.3147541 99.4010355,24.56303 98.0592605,25.2094969 C96.320651,25.9543245 93.1907471,29.4322216 92.4289607,31.3702657 C91.749933,34.1521764 90.1598821,36.7197287 87.5760494,39.485359 C84.9759362,41.6052007 80.3556987,40.7606557 77.6891073,39.0708875 C77.5235901,39.0708875 66.576388,30.5420011 66.576388,30.5420011 C62.6514586,27.4453363 59.918389,26.1035613 56.6229678,25.7060486 C56.4574505,25.6070096 56.3082137,25.4414924 56.2586941,25.3254946 C55.7451837,24.182476 55.6461447,24.2821933 55.2811927,24 C54.8511192,24.3317128 54.5363651,24.5135105 54.1056133,24.6457886 C53.9068569,24.6457886 53.8736178,24.6457886 53.75762,24.5799887 C53.4930638,24.463991 53.2115488,24.2319955 52.9300338,24.2157151 C52.598321,24.2821933 52.3337647,24.9442623 51.8867325,25.6070096 C51.8867325,25.6070096 51.1242678,26.2690786 50.4289597,26.8483889 C50.1637251,27.0803844 50.130486,27.4453363 49.9486883,27.6603731 C49.5844147,28.0578858 49.1536629,28.7036744 49.0871846,28.7036744 C48.9216674,29.166987 48.8558675,29.5814585 49.1536629,29.7964952 C49.1536629,30.3100057 49.4188975,30.4422838 49.5179365,30.5582815 C49.6006951,30.7237988 49.6176539,30.790277 49.7336516,30.9062747 C49.932408,30.9890334 50.0979252,31.0222725 50.2966816,31.071792 C51.3562633,32.0492934 51.7870151,32.0323347 53.0127924,31.8668174 C55.1319559,32.0160543 54.9501582,32.7283211 54.9006387,33.8048615 C54.7683606,33.9703787 54.7351215,33.95342 54.5858846,34.0361786 C53.6416223,34.0361786 52.6478405,33.8211419 51.7042565,33.8211419 C49.6339342,34.0036179 47.845127,34.3678915 48.0106442,36.8682872 C48.1436007,37.8457886 49.9154492,39.203844 50.8434312,37.3655172 C50.9757093,36.520294 51.6872978,36.9015263 52.3005256,37.1002826 C56.0097399,38.7066139 58.974805,39.5348785 60.9454099,37.862069 C61.541679,37.1172414 61.9059526,37.6470322 62.5185021,38.0940644 C65.4998476,41.6384398 69.7727702,43.9400791 76.3473323,44.0228378 C78.5336523,44.5695873 80.2064618,45.4806105 81.0347264,47.633013 C83.0711312,52.8501979 85.6549639,57.0566422 89.4476153,59.2592425 C89.1328612,62.555342 89.2658176,65.2877332 92.594478,66 C93.472262,65.2877332 92.2464847,64.2111928 93.256547,61.7935557 C93.1737883,60.7170153 92.2464847,59.8392312 91.9317306,57.7851894 C88.0563207,54.605766 89.6958911,53.2972301 89.1165808,51.1773884 C89.0663829,48.0807236 88.3880335,45.712606 87.0794976,43.3607688 C86.9302608,42.9795365 87.1785366,42.6980215 87.5265299,42.4992651 C89.7128499,40.8596947 90.905388,39.2533635 91.4351789,37.6965517 C92.2464847,34.9309214 93.6208206,32.7615602 95.5751451,31.2047484 C97.2316742,29.8792538 98.8047664,29.4654607 100.593574,28.2892029 C101.702675,26.4678349 101.537158,25.9712832 101.024326,25.1430187" id="Logo_PUMA-Cat"></path>
        </g>
    </g>
</svg>
